<svg width="40" height="40" viewBox="0 0 40 40" fill="none" xmlns="http://www.w3.org/2000/svg">
<path d="M0 14C0 6.26801 6.26801 0 14 0H26C33.732 0 40 6.26801 40 14V26C40 33.732 33.732 40 26 40H14C6.26801 40 0 33.732 0 26V14Z" fill="url(#paint0_linear_115_423)"/>
<path d="M13.3332 21.6667C13.1755 21.6673 13.0209 21.623 12.8874 21.5392C12.7538 21.4554 12.6468 21.3354 12.5787 21.1931C12.5106 21.0509 12.4843 20.8922 12.5028 20.7356C12.5213 20.579 12.5839 20.4309 12.6832 20.3084L20.9332 11.8084C20.9951 11.737 21.0795 11.6887 21.1724 11.6715C21.2653 11.6543 21.3613 11.6692 21.4447 11.7138C21.528 11.7584 21.5937 11.83 21.631 11.9168C21.6683 12.0037 21.675 12.1006 21.6499 12.1917L20.0499 17.2084C20.0027 17.3347 19.9869 17.4705 20.0037 17.6042C20.0206 17.738 20.0696 17.8656 20.1467 17.9762C20.2237 18.0869 20.3264 18.1771 20.446 18.2394C20.5656 18.3016 20.6984 18.3338 20.8332 18.3334H26.6666C26.8243 18.3329 26.9789 18.3771 27.1124 18.4609C27.246 18.5447 27.3531 18.6648 27.4211 18.807C27.4892 18.9493 27.5155 19.1079 27.497 19.2645C27.4785 19.4211 27.4159 19.5693 27.3166 19.6917L19.0666 28.1917C19.0047 28.2632 18.9204 28.3114 18.8274 28.3286C18.7345 28.3458 18.6385 28.3309 18.5551 28.2863C18.4718 28.2417 18.4061 28.1701 18.3688 28.0833C18.3315 27.9965 18.3248 27.8995 18.3499 27.8084L19.9499 22.7917C19.9971 22.6655 20.0129 22.5296 19.9961 22.3959C19.9792 22.2621 19.9302 22.1345 19.8532 22.0239C19.7761 21.9132 19.6734 21.823 19.5538 21.7608C19.4343 21.6985 19.3014 21.6663 19.1666 21.6667H13.3332Z" stroke="#E8A63D" stroke-width="1.66667" stroke-linecap="round" stroke-linejoin="round"/>
<defs>
<linearGradient id="paint0_linear_115_423" x1="0" y1="0" x2="40" y2="40" gradientUnits="userSpaceOnUse">
<stop stop-color="#E8A63D" stop-opacity="0.125"/>
<stop offset="1" stop-color="#E8A63D" stop-opacity="0.25"/>
</linearGradient>
</defs>
</svg>
