<svg width="40" height="40" viewBox="0 0 40 40" fill="none" xmlns="http://www.w3.org/2000/svg">
<path d="M0 14C0 6.26801 6.26801 0 14 0H26C33.732 0 40 6.26801 40 14V26C40 33.732 33.732 40 26 40H14C6.26801 40 0 33.732 0 26V14Z" fill="url(#paint0_linear_115_417)"/>
<path d="M16.6667 11.6665V14.9998" stroke="#6DD67A" stroke-width="1.66667" stroke-linecap="round" stroke-linejoin="round"/>
<path d="M23.3333 11.6665V14.9998" stroke="#6DD67A" stroke-width="1.66667" stroke-linecap="round" stroke-linejoin="round"/>
<path d="M25.8333 13.3335H14.1667C13.2462 13.3335 12.5 14.0797 12.5 15.0002V26.6668C12.5 27.5873 13.2462 28.3335 14.1667 28.3335H25.8333C26.7538 28.3335 27.5 27.5873 27.5 26.6668V15.0002C27.5 14.0797 26.7538 13.3335 25.8333 13.3335Z" stroke="#6DD67A" stroke-width="1.66667" stroke-linecap="round" stroke-linejoin="round"/>
<path d="M12.5 18.3335H27.5" stroke="#6DD67A" stroke-width="1.66667" stroke-linecap="round" stroke-linejoin="round"/>
<defs>
<linearGradient id="paint0_linear_115_417" x1="0" y1="0" x2="40" y2="40" gradientUnits="userSpaceOnUse">
<stop stop-color="#6DD67A" stop-opacity="0.125"/>
<stop offset="1" stop-color="#6DD67A" stop-opacity="0.25"/>
</linearGradient>
</defs>
</svg>
