<svg width="34" height="34" viewBox="0 0 34 34" fill="none" xmlns="http://www.w3.org/2000/svg">
<g clip-path="url(#clip0_90_200)">
<path d="M29.754 5.94932V2.97466H26.7794V0H23.8032V2.97466H20.8286V0H17.8524V2.97466H14.8778V0H11.9001V2.97466H8.92548V0H5.94932V2.97466H2.97466V5.94932H0V8.92548H2.97466V11.9001H0V14.8763H2.97466V17.8509H0V20.8271H2.97466V23.8017H0V26.7779H2.97466V29.7525H5.94932V32.7287H8.92548V29.754H11.9001V32.7287H14.8763V29.754H17.8509V32.7287H20.8271V29.754H23.8017V32.7287H26.7779V29.754H29.7525V26.7794H32.7287V23.8032H29.754V20.8286H32.7287V17.8524H29.754V14.8778H32.7287V11.9001H29.754V8.92548H32.7287V5.94932H29.754ZM26.7794 26.7779H5.94932V5.95082H26.7764L26.7794 26.7779Z" fill="#FFFFE4"/>
</g>
<defs>
<clipPath id="clip0_90_200">
<rect width="33.0187" height="33.0187" fill="white"/>
</clipPath>
</defs>
</svg>
