<svg width="30" height="24" viewBox="0 0 30 24" fill="none" xmlns="http://www.w3.org/2000/svg">
<path d="M27.7042 0.00113528V1.233H22.6417V0H6.18749V1.233H1.125V0H0V23.9062H1.125V22.6755H6.18749V23.9074H22.6406V22.6755H27.7031V23.9074H29.1094V0.00113528H27.7042ZM6.18749 21.2017H1.125V17.685H6.18749V21.2017ZM6.18749 16.2067H1.125V12.6922H6.18749V16.2067ZM6.18749 11.2162H1.125V7.70175H6.18749V11.2162ZM6.18749 6.22351H1.125V2.70675H6.18749V6.22351ZM9.77063 17.6805V5.49L20.3254 11.5853L9.77063 17.6805ZM27.7031 21.2017H22.6406V17.685H27.7031V21.2017ZM27.7031 16.2067H22.6406V12.6922H27.7031V16.2067ZM27.7031 11.2162H22.6406V7.70175H27.7031V11.2162ZM27.7031 6.22351H22.6406V2.70675H27.7031V6.22351Z" fill="#FFFFE4"/>
</svg>
