<svg width="33" height="33" viewBox="0 0 33 33" fill="none" xmlns="http://www.w3.org/2000/svg">
<path d="M5.79935 0.120562C6.00587 0.219873 6.18016 0.375474 6.30213 0.569489C6.4241 0.763487 6.4888 0.987999 6.48878 1.21717C6.48878 2.56359 6.9949 3.339 7.62918 4.28311L7.67623 4.35125C8.2148 5.15261 8.92207 6.20217 8.92207 7.70595C8.92207 8.88909 8.45207 10.0238 7.61546 10.8604C6.77886 11.697 5.64418 12.167 4.46104 12.167C3.27789 12.167 2.14321 11.697 1.30661 10.8604C0.469998 10.0238 0 8.88909 0 7.70595C0 7.10898 -1.45036e-07 6.08213 0.6213 4.7568C1.22962 3.45904 2.38625 1.96824 4.51132 0.26656C4.69043 0.123288 4.90638 0.0335643 5.13428 0.00773895C5.36216 -0.0180864 5.59273 0.0210244 5.79935 0.120562ZM4.46104 14.6003C5.8273 14.6027 7.16317 14.197 8.29753 13.4355C8.72092 14.6262 8.92207 16.2095 8.92207 18.2583C8.92207 21.0355 8.54897 24.3708 7.94064 27.0344C7.63892 28.3581 7.26419 29.5796 6.81809 30.4962C6.60843 30.9528 6.32937 31.3741 5.99077 31.7453C5.65659 32.0875 5.14236 32.4525 4.46104 32.4525C3.77971 32.4525 3.26548 32.0875 2.93293 31.7453C2.59433 31.3741 2.31526 30.9528 2.10561 30.4962C1.65788 29.578 1.28316 28.3581 0.981428 27.0328C0.348091 24.1498 0.0191581 21.2083 0 18.2567C0 16.2095 0.201152 14.6262 0.624545 13.4355C1.7589 14.197 3.09477 14.6027 4.46104 14.6003ZM10.5183 19.5918C11.299 19.9349 12.129 20.1529 12.9776 20.2374V16.628C12.9776 15.9357 13.114 15.2501 13.3789 14.6105C13.6438 13.9709 14.0321 13.3896 14.5217 12.9001C15.5105 11.9113 16.8514 11.3559 18.2497 11.3559H21.8591C21.7259 10.0281 21.2671 8.75366 20.5234 7.6456C19.7797 6.53756 18.7741 5.6301 17.5958 5.00373C16.4174 4.37733 15.1028 4.05135 13.7684 4.05469C12.4339 4.05802 11.1209 4.39057 9.94568 5.02284C9.69318 4.49024 9.39579 3.98011 9.05671 3.49797L8.9756 3.37793L8.68523 2.93669C10.2306 2.08191 11.9659 1.62898 13.7319 1.61944C15.498 1.60992 17.2379 2.0441 18.7925 2.88214C20.347 3.7202 21.6662 4.93525 22.6288 6.41583C23.5914 7.89641 24.1668 9.59506 24.3021 11.3559H27.1718C27.8641 11.3559 28.5497 11.4922 29.1893 11.7572C29.8289 12.0222 30.4102 12.4105 30.8997 12.9001C31.3893 13.3896 31.7777 13.9709 32.0426 14.6105C32.3075 15.2501 32.4439 15.9357 32.4439 16.628V25.5501C32.4439 26.2424 32.3075 26.928 32.0426 27.5676C31.7777 28.2072 31.3893 28.7885 30.8997 29.2781C30.4102 29.7676 29.8289 30.156 29.1893 30.4209C28.5497 30.6858 27.8641 30.8222 27.1718 30.8222H18.2497C16.8514 30.8222 15.5105 30.2668 14.5217 29.2781C13.533 28.2893 12.9776 26.9484 12.9776 25.5501V22.6804C12.0815 22.6121 11.1978 22.4295 10.348 22.137C10.4291 21.2772 10.4875 20.4207 10.5183 19.5918ZM27.1718 13.7892H24.2096C23.8648 15.9989 22.8266 18.0421 21.2451 19.6234C19.6638 21.2049 17.6206 22.2431 15.4109 22.588V25.5501C15.4109 27.1171 16.6827 28.3889 18.2497 28.3889H27.1718C27.9246 28.3889 28.6467 28.0898 29.1791 27.5574C29.7115 27.025 30.0106 26.303 30.0106 25.5501V16.628C30.0106 15.8752 29.7115 15.1531 29.1791 14.6207C28.6467 14.0883 27.9246 13.7892 27.1718 13.7892ZM15.4109 20.1157C16.9686 19.7958 18.3984 19.0259 19.5231 17.9014C20.6476 16.7768 21.4175 15.347 21.7374 13.7892H18.2497C17.4968 13.7892 16.7748 14.0883 16.2424 14.6207C15.71 15.1531 15.4109 15.8752 15.4109 16.628V20.1157Z" fill="#FFFFE4"/>
</svg>
