<svg width="40" height="40" viewBox="0 0 40 40" fill="none" xmlns="http://www.w3.org/2000/svg">
<path d="M0 14C0 6.26801 6.26801 0 14 0H26C33.732 0 40 6.26801 40 14V26C40 33.732 33.732 40 26 40H14C6.26801 40 0 33.732 0 26V14Z" fill="url(#paint0_linear_115_354)"/>
<path d="M23.3334 27.5V25.8333C23.3334 24.9493 22.9822 24.1014 22.3571 23.4763C21.732 22.8512 20.8841 22.5 20.0001 22.5H15.0001C14.116 22.5 13.2682 22.8512 12.6431 23.4763C12.0179 24.1014 11.6667 24.9493 11.6667 25.8333V27.5" stroke="#6BB8E8" stroke-width="1.66667" stroke-linecap="round" stroke-linejoin="round"/>
<path d="M23.3333 12.6069C24.048 12.7922 24.6811 13.2097 25.133 13.7937C25.5849 14.3777 25.8301 15.0952 25.8301 15.8336C25.8301 16.572 25.5849 17.2895 25.133 17.8735C24.6811 18.4575 24.048 18.875 23.3333 19.0603" stroke="#6BB8E8" stroke-width="1.66667" stroke-linecap="round" stroke-linejoin="round"/>
<path d="M28.3333 27.5001V25.8334C28.3327 25.0948 28.0869 24.3774 27.6344 23.7937C27.1819 23.2099 26.5484 22.793 25.8333 22.6084" stroke="#6BB8E8" stroke-width="1.66667" stroke-linecap="round" stroke-linejoin="round"/>
<path d="M17.5001 19.1667C19.341 19.1667 20.8334 17.6743 20.8334 15.8333C20.8334 13.9924 19.341 12.5 17.5001 12.5C15.6591 12.5 14.1667 13.9924 14.1667 15.8333C14.1667 17.6743 15.6591 19.1667 17.5001 19.1667Z" stroke="#6BB8E8" stroke-width="1.66667" stroke-linecap="round" stroke-linejoin="round"/>
<defs>
<linearGradient id="paint0_linear_115_354" x1="0" y1="0" x2="40" y2="40" gradientUnits="userSpaceOnUse">
<stop stop-color="#6BB8E8" stop-opacity="0.125"/>
<stop offset="1" stop-color="#6BB8E8" stop-opacity="0.25"/>
</linearGradient>
</defs>
</svg>
