<svg width="40" height="40" viewBox="0 0 40 40" fill="none" xmlns="http://www.w3.org/2000/svg">
<path d="M0 14C0 6.26801 6.26801 0 14 0H26C33.732 0 40 6.26801 40 14V26C40 33.732 33.732 40 26 40H14C6.26801 40 0 33.732 0 26V14Z" fill="url(#paint0_linear_115_414)"/>
<path d="M26.6666 20.8331C26.6666 24.9997 23.7499 27.0831 20.2833 28.2914C20.1017 28.3529 19.9045 28.35 19.7249 28.2831C16.2499 27.0831 13.3333 24.9997 13.3333 20.8331V14.9997C13.3333 14.7787 13.421 14.5667 13.5773 14.4105C13.7336 14.2542 13.9456 14.1664 14.1666 14.1664C15.8333 14.1664 17.9166 13.1664 19.3666 11.8997C19.5431 11.7489 19.7677 11.666 19.9999 11.666C20.2321 11.666 20.4567 11.7489 20.6333 11.8997C22.0916 13.1747 24.1666 14.1664 25.8333 14.1664C26.0543 14.1664 26.2662 14.2542 26.4225 14.4105C26.5788 14.5667 26.6666 14.7787 26.6666 14.9997V20.8331Z" stroke="#D98DD8" stroke-width="1.66667" stroke-linecap="round" stroke-linejoin="round"/>
<defs>
<linearGradient id="paint0_linear_115_414" x1="0" y1="0" x2="40" y2="40" gradientUnits="userSpaceOnUse">
<stop stop-color="#D98DD8" stop-opacity="0.125"/>
<stop offset="1" stop-color="#D98DD8" stop-opacity="0.25"/>
</linearGradient>
</defs>
</svg>
