<svg width="40" height="40" viewBox="0 0 40 40" fill="none" xmlns="http://www.w3.org/2000/svg">
<path d="M0 14C0 6.26801 6.26801 0 14 0H26C33.732 0 40 6.26801 40 14V26C40 33.732 33.732 40 26 40H14C6.26801 40 0 33.732 0 26V14Z" fill="url(#paint0_linear_115_293)"/>
<g clip-path="url(#clip0_115_293)">
<path d="M19.1807 12.3449C19.2164 12.1537 19.3179 11.9811 19.4675 11.8568C19.6171 11.7326 19.8054 11.6646 19.9999 11.6646C20.1943 11.6646 20.3827 11.7326 20.5323 11.8568C20.6819 11.9811 20.7833 12.1537 20.819 12.3449L21.6949 16.9765C21.7571 17.3058 21.9171 17.6087 22.1541 17.8457C22.391 18.0826 22.6939 18.2427 23.0232 18.3049L27.6549 19.1807C27.846 19.2164 28.0187 19.3179 28.1429 19.4675C28.2672 19.6171 28.3352 19.8054 28.3352 19.9999C28.3352 20.1943 28.2672 20.3827 28.1429 20.5323C28.0187 20.6819 27.846 20.7833 27.6549 20.819L23.0232 21.6949C22.6939 21.7571 22.391 21.9171 22.1541 22.1541C21.9171 22.391 21.7571 22.6939 21.6949 23.0232L20.819 27.6549C20.7833 27.846 20.6819 28.0187 20.5323 28.1429C20.3827 28.2672 20.1943 28.3352 19.9999 28.3352C19.8054 28.3352 19.6171 28.2672 19.4675 28.1429C19.3179 28.0187 19.2164 27.846 19.1807 27.6549L18.3049 23.0232C18.2427 22.6939 18.0826 22.391 17.8457 22.1541C17.6087 21.9171 17.3058 21.7571 16.9765 21.6949L12.3449 20.819C12.1537 20.7833 11.9811 20.6819 11.8568 20.5323C11.7326 20.3827 11.6646 20.1943 11.6646 19.9999C11.6646 19.8054 11.7326 19.6171 11.8568 19.4675C11.9811 19.3179 12.1537 19.2164 12.3449 19.1807L16.9765 18.3049C17.3058 18.2427 17.6087 18.0826 17.8457 17.8457C18.0826 17.6087 18.2427 17.3058 18.3049 16.9765L19.1807 12.3449Z" stroke="#F4C96B" stroke-width="1.66667" stroke-linecap="round" stroke-linejoin="round"/>
<path d="M26.6667 11.6665V14.9998" stroke="#F4C96B" stroke-width="1.66667" stroke-linecap="round" stroke-linejoin="round"/>
<path d="M28.3333 13.3335H25" stroke="#F4C96B" stroke-width="1.66667" stroke-linecap="round" stroke-linejoin="round"/>
<path d="M13.3334 28.3333C14.2539 28.3333 15.0001 27.5871 15.0001 26.6667C15.0001 25.7462 14.2539 25 13.3334 25C12.4129 25 11.6667 25.7462 11.6667 26.6667C11.6667 27.5871 12.4129 28.3333 13.3334 28.3333Z" stroke="#F4C96B" stroke-width="1.66667" stroke-linecap="round" stroke-linejoin="round"/>
</g>
<defs>
<linearGradient id="paint0_linear_115_293" x1="0" y1="0" x2="40" y2="40" gradientUnits="userSpaceOnUse">
<stop stop-color="#F4C96B" stop-opacity="0.125"/>
<stop offset="1" stop-color="#F4C96B" stop-opacity="0.25"/>
</linearGradient>
<clipPath id="clip0_115_293">
<rect width="20" height="20" fill="white" transform="translate(10 10)"/>
</clipPath>
</defs>
</svg>
