<svg width="293" height="266" viewBox="0 0 293 266" fill="none" xmlns="http://www.w3.org/2000/svg">
<g clip-path="url(#clip0_56_15)">
<path d="M140.833 53.3003C144.094 49.9826 148.451 48.9757 150.564 51.0507C152.677 53.1257 151.744 57.4965 148.48 60.8149C147.195 62.1588 145.606 63.1755 143.847 63.7798L129.848 77.6623L123.469 70.9566L137.946 57.983C138.52 56.2141 139.51 54.6084 140.833 53.3003Z" fill="#FFB6B6"/>
<path d="M96.0619 41.8409L110.739 74.381L134.176 61.7021L142.564 66.1512C142.564 66.1512 123.404 98.1632 110.286 94.5186C97.1672 90.874 73.8726 57.8328 78.0699 47.6351C82.2671 37.4375 96.0619 41.8409 96.0619 41.8409Z" fill="#7E0073"/>
<path d="M164.099 60.2098C160.693 57.0414 159.565 52.716 161.583 50.5495C163.601 48.383 167.999 49.1952 171.406 52.365C172.785 53.6126 173.845 55.1721 174.497 56.9129L188.764 70.5198L182.232 77.0747L168.861 62.9649C167.076 62.4397 165.444 61.495 164.099 60.2098H164.099Z" fill="#ED9DA0"/>
<path d="M235.965 62.3071L208.427 91.6082C208.427 91.6082 202.243 97.7235 192.068 88.9047C181.894 80.0859 170.582 65.6178 170.582 65.6178L176.928 58.7152L188.169 68.7375C188.169 68.7375 194.842 71.4213 195.306 73.1577C195.77 74.8942 194.473 75.6123 196.558 75.0559C198.643 74.4996 198.682 73.2584 198.814 75.1409C198.947 77.0234 197.672 79.2236 200.081 77.0925C202.489 74.9615 203.208 76.258 203.208 76.258L220.808 52.9575C220.808 52.9575 232.182 43.9693 235.451 52.0264C238.721 60.0834 235.964 62.3071 235.964 62.3071H235.965Z" fill="#F2F2F2"/>
<path d="M89.626 258.715H100.328L105.419 217.46H89.6238L89.626 258.715Z" fill="#ED9DA0"/>
<path d="M126.293 258.472C126.626 259.033 126.802 260.843 126.802 261.496C126.802 262.459 126.419 263.382 125.738 264.063C125.057 264.744 124.133 265.126 123.169 265.126H90.0263C89.3691 265.126 88.7388 264.865 88.2741 264.401C87.8094 263.936 87.5483 263.306 87.5483 262.649V261.27C87.5483 261.27 85.9086 257.126 89.2843 252.017C89.2843 252.017 93.4797 256.017 99.7488 249.752L101.598 246.405L114.978 256.186L122.395 257.098C124.018 257.298 125.457 257.067 126.291 258.472H126.293Z" fill="#090814"/>
<path d="M233.541 56.3904L232.612 45.1726H220.262L217.524 57.0576L233.541 56.3904Z" fill="#ED9DA0"/>
<path d="M97.7242 43.9294L97.9407 29.5034L89.0408 23.958L79.3601 35.7903L97.7242 43.9294Z" fill="#ED9DA0"/>
<path d="M224.492 48.7421C231.948 48.7421 237.992 42.7018 237.992 35.2506C237.992 27.7994 231.948 21.759 224.492 21.759C217.037 21.759 210.993 27.7994 210.993 35.2506C210.993 42.7018 217.037 48.7421 224.492 48.7421Z" fill="#ED9DA0"/>
<path d="M97.7524 33.9928C106.496 33.9928 113.583 26.9093 113.583 18.1714C113.583 9.43355 106.496 2.3501 97.7524 2.3501C89.0093 2.3501 81.9216 9.43355 81.9216 18.1714C81.9216 26.9093 89.0093 33.9928 97.7524 33.9928Z" fill="#ED9DA0"/>
<path d="M119.342 139.321L104.595 239.614H86.0929L88.553 182.365L89.8477 152.263L86.0929 137.934C84.9005 135.651 83.8471 133.298 82.9384 130.888C81.3126 126.532 80.0285 121.308 81.9349 118.831C82.6362 117.918 84.4598 117.242 86.9382 116.739C88.6512 116.406 90.3799 116.16 92.1177 116.002C103.059 114.92 118.623 115.596 118.623 115.596L119.019 128.645L119.239 135.931L119.342 139.321Z" fill="#090814"/>
<path d="M28.6917 242.736L38.1197 247.797L62.1416 213.863L48.2271 206.393L28.6917 242.736Z" fill="#ED9DA0"/>
<path d="M61.107 259.866C61.1348 260.518 60.4324 262.196 60.1236 262.77C59.6677 263.618 58.8933 264.251 57.9709 264.528C57.0485 264.806 56.0535 264.706 55.2049 264.25L26.0085 248.573C25.4296 248.262 24.998 247.734 24.8086 247.105C24.6191 246.476 24.6874 245.798 24.9984 245.219L25.6514 244.004C25.6514 244.004 26.17 239.577 31.5627 236.674C31.5627 236.674 33.3643 242.182 41.8543 239.628L45.0678 237.554L52.2243 252.5L58.3261 256.812C59.661 257.755 61.0363 258.233 61.1077 259.865L61.107 259.866Z" fill="#090814"/>
<path d="M119.238 135.931L111.411 151.615L88.5528 182.364L50.9231 232.988L34.625 224.24L79.2983 149.066L82.7799 134.666C82.7799 134.666 82.7799 133.11 82.9381 130.888C83.2476 126.491 84.1753 119.486 86.9379 116.739C87.2891 116.378 87.7036 116.084 88.1609 115.873C88.9919 115.499 90.373 115.589 92.1164 116.002C99.4047 117.742 113.003 125.216 119.017 128.645L119.237 135.931H119.238Z" fill="#090814"/>
<path d="M232.536 259.973H223.334L218.957 224.5H232.537L232.536 259.973Z" fill="#ED9DA0"/>
<path d="M201.009 259.764C200.723 260.246 200.57 261.803 200.57 262.363C200.57 263.191 200.899 263.984 201.484 264.57C202.07 265.155 202.864 265.484 203.693 265.484H232.191C232.756 265.484 233.298 265.26 233.698 264.86C234.097 264.461 234.322 263.919 234.322 263.355V262.169C234.322 262.169 235.731 258.605 232.829 254.213C232.829 254.213 229.222 257.654 223.832 252.265L222.242 249.388L210.737 257.798L204.359 258.583C202.964 258.754 201.727 258.556 201.009 259.764Z" fill="#090814"/>
<path d="M268.785 249.136L260.278 252.643L242.693 221.52L255.248 216.344L268.785 249.136Z" fill="#ED9DA0"/>
<path d="M239.563 260.961C239.482 261.516 239.936 263.011 240.149 263.531C240.305 263.91 240.535 264.254 240.824 264.544C241.114 264.835 241.458 265.065 241.836 265.222C242.215 265.38 242.621 265.461 243.031 265.462C243.441 265.462 243.848 265.382 244.227 265.226L270.569 254.362C270.828 254.256 271.063 254.099 271.261 253.901C271.459 253.704 271.617 253.469 271.724 253.211C271.832 252.953 271.887 252.676 271.887 252.396C271.888 252.116 271.833 251.839 271.726 251.58L271.273 250.484C271.273 250.484 271.216 246.653 266.857 243.699C266.857 243.699 264.835 248.254 257.797 245.329L255.229 243.274L247.804 255.434L242.208 258.59C240.984 259.281 239.765 259.569 239.563 260.96V260.961Z" fill="#090814"/>
<path d="M236.757 138.293L233.002 152.62L234.002 175.871L235.66 214.487L235.707 215.576L235.894 219.918L236.757 239.97H218.255L210.018 183.953L203.508 139.681L204.191 117.133L204.228 115.954C204.228 115.954 237.319 114.516 240.915 119.19C244.512 123.863 236.757 138.292 236.757 138.292L236.757 138.293Z" fill="#090814"/>
<path d="M262.5 225.558L259.363 227.179L247.763 233.179L246.066 234.057L235.894 219.923L210.018 183.958L203.508 139.681L204.191 117.133C207.119 116.202 209.46 115.821 210.647 116.375C215.993 118.873 215.738 135.251 215.738 135.251L218.994 149.701L234.003 175.871L262.5 225.558Z" fill="#090814"/>
<path d="M293 265.577C293 265.689 292.956 265.797 292.876 265.876C292.797 265.955 292.69 265.999 292.578 265.999H0V265.156H292.578C292.69 265.156 292.797 265.2 292.876 265.279C292.955 265.358 293 265.466 293 265.577Z" fill="#E6E6E6"/>
<path d="M81.3954 32.7385L99.3783 41.3659C99.3783 41.3659 118.442 97.8028 118.442 100.678C118.442 103.554 123.837 105.351 120.6 108.587C117.362 111.822 126.625 114.562 121.634 117.146C116.643 119.73 85.5091 133.866 82.047 132.593C72.4988 129.079 82.4498 116.158 82.4498 116.158C82.4498 116.158 75.2776 110.385 76.3565 107.509C77.4355 104.633 69.8823 49.6345 69.8823 49.6345L81.3921 32.7396L81.3954 32.7385Z" fill="#7E0073"/>
<path d="M96.7852 21.9619L98.8212 26.0318C98.8212 26.0318 100.858 18.706 104.115 17.0779C107.373 15.4498 107.78 13.008 107.78 13.008C107.78 13.008 111.853 18.299 114.703 17.0779C117.552 15.8568 118.775 15.0432 115.517 10.1599C112.259 5.27671 113.074 7.71813 113.074 7.71813C113.074 7.71813 110.223 3.64823 110.631 4.86931C111.038 6.09039 108.187 1.61164 108.187 2.83455C108.187 4.05746 106.151 0.392752 106.151 1.61347C106.151 2.83418 97.5994 -1.23535 98.8212 0.392386C100.043 2.02013 91.4911 -2.86529 87.4188 3.65006C83.3464 10.1654 77.6996 8.95752 79.7085 13.0205C81.7173 17.0834 80.9028 28.0706 80.9028 28.0706H86.5192C86.5192 28.0706 92.3056 17.0768 96.7852 21.9619Z" fill="#090814"/>
<path d="M216.636 56.4634L216.966 56.3704L233.182 51.7903L246.131 69.4044L237.497 106.07L240.734 120.808C240.734 120.808 214.477 113.979 204.046 119.73C204.046 119.73 203.327 116.452 204.046 114.856C204.766 113.26 205.845 106.617 204.766 103.647C203.687 100.678 206.924 86.6588 206.924 86.6588C206.924 86.6588 205.845 77.3125 210.52 72.6398C215.196 67.967 216.637 56.4638 216.637 56.4638L216.636 56.4634Z" fill="#F2F2F2"/>
<path d="M144.927 94.3697C144.645 94.2298 144.395 94.0338 144.191 93.7935L135.3 83.3214C135.011 82.9805 134.827 82.5637 134.769 82.1207C134.712 81.6778 134.783 81.2277 134.975 80.8243L151.646 45.8683C151.79 45.5658 151.998 45.2981 152.256 45.0836C152.513 44.8692 152.814 44.7131 153.138 44.6261C153.462 44.5391 153.801 44.5233 154.131 44.5798C154.462 44.6363 154.776 44.7637 155.052 44.9533L195.238 72.5019C195.639 72.777 195.944 73.1716 196.108 73.6297C196.273 74.0877 196.288 74.586 196.153 75.0535C187.772 104.206 203.198 122.915 144.927 94.3697Z" fill="#090814"/>
<path d="M183.889 105.451L186.826 102.028L194.246 74.7951C194.36 74.4611 194.361 74.0992 194.25 73.7644C194.139 73.4296 193.922 73.1402 193.631 72.94L155.972 47.1714C155.781 47.0408 155.564 46.9528 155.336 46.9132C155.108 46.8736 154.874 46.8835 154.65 46.9421C154.426 47.0007 154.217 47.1067 154.037 47.2529C153.858 47.3991 153.712 47.5822 153.609 47.7896L137.733 80.0088C137.615 80.2438 137.557 80.5044 137.564 80.7674C137.572 81.0303 137.645 81.2872 137.776 81.515C137.809 81.5802 137.849 81.6415 137.895 81.698L145.879 92.2306L183.889 105.451Z" fill="#F2F2F2"/>
<path d="M143.98 78.0316C144.047 78.0317 144.112 78.0133 144.169 77.9784C144.226 77.9435 144.272 77.8934 144.302 77.8339L157.212 52.203C157.234 52.1607 157.248 52.1145 157.252 52.0669C157.256 52.0194 157.251 51.9715 157.236 51.9261C157.221 51.8807 157.198 51.8386 157.167 51.8023C157.136 51.7661 157.098 51.7364 157.055 51.7149C157.013 51.6934 156.966 51.6807 156.919 51.6774C156.871 51.6741 156.823 51.6803 156.778 51.6956C156.733 51.711 156.691 51.7351 156.655 51.7668C156.62 51.7984 156.59 51.8368 156.57 51.8798L143.661 77.5107C143.633 77.5655 143.62 77.6264 143.623 77.6877C143.625 77.749 143.643 77.8086 143.676 77.8608C143.708 77.9131 143.753 77.9562 143.806 77.9862C143.86 78.0161 143.92 78.0319 143.982 78.0319L143.98 78.0316Z" fill="#7E0073"/>
<path d="M150.814 82.3453C150.881 82.3454 150.946 82.327 151.003 82.2921C151.06 82.2572 151.106 82.2072 151.135 82.1477L164.044 56.5167C164.067 56.4744 164.08 56.4282 164.084 56.3807C164.088 56.3331 164.083 56.2852 164.068 56.2398C164.054 56.1944 164.03 56.1523 163.999 56.1161C163.968 56.0798 163.93 56.0501 163.888 56.0286C163.845 56.0072 163.798 55.9944 163.751 55.9911C163.703 55.9878 163.655 55.994 163.61 56.0093C163.565 56.0247 163.523 56.0489 163.488 56.0805C163.452 56.1121 163.423 56.1505 163.402 56.1935L150.493 81.8244C150.465 81.8792 150.452 81.9402 150.455 82.0014C150.458 82.0627 150.476 82.1223 150.508 82.1746C150.54 82.2268 150.585 82.27 150.639 82.2999C150.692 82.3299 150.753 82.3456 150.814 82.3457V82.3453Z" fill="#7E0073"/>
<path d="M156.569 85.94C156.635 85.9401 156.701 85.9217 156.758 85.8868C156.814 85.8519 156.86 85.8019 156.89 85.7424L169.799 60.1114C169.821 60.0692 169.835 60.0229 169.839 59.9754C169.843 59.9279 169.838 59.88 169.823 59.8345C169.809 59.7891 169.785 59.747 169.754 59.7108C169.723 59.6745 169.685 59.6448 169.642 59.6233C169.6 59.6019 169.553 59.5891 169.506 59.5858C169.458 59.5825 169.41 59.5887 169.365 59.6041C169.32 59.6194 169.278 59.6436 169.242 59.6752C169.207 59.7068 169.178 59.7452 169.157 59.7882L156.248 85.4192C156.22 85.4739 156.207 85.5349 156.21 85.5962C156.212 85.6574 156.231 85.717 156.263 85.7693C156.295 85.8215 156.34 85.8647 156.394 85.8946C156.447 85.9246 156.507 85.9403 156.569 85.9404V85.94Z" fill="#7E0073"/>
<path d="M136.193 82.4683C140.656 81.1506 144.955 82.3837 145.793 85.2227C146.632 88.0616 143.694 91.4306 139.229 92.7483C137.452 93.2991 135.57 93.4167 133.738 93.0912L114.757 98.4353L112.437 89.4796L131.396 85.1604C132.757 83.8923 134.402 82.9685 136.194 82.4665L136.193 82.4683Z" fill="#FFB6B6"/>
<path d="M102.621 50.7289L99.646 86.2994L126.295 86.5857L131.467 94.5446C131.467 94.5446 99.1665 113.236 89.4679 103.685C79.7692 94.1343 75.4548 53.9448 84.0767 47.0656C92.6986 40.1864 102.621 50.7289 102.621 50.7289Z" fill="#7E0073"/>
<path d="M189.919 114.953C185.278 114.604 181.696 111.928 181.92 108.976C182.143 106.024 186.085 103.916 190.727 104.265C192.584 104.38 194.386 104.937 195.983 105.89L215.628 107.618L214.62 116.814L195.361 114.134C193.638 114.837 191.772 115.118 189.919 114.953L189.919 114.953Z" fill="#ED9DA0"/>
<path d="M247.371 71.7545L244.161 111.826C244.161 111.826 243.15 120.461 229.694 119.92C216.238 119.378 198.363 115.133 198.363 115.133L199.008 105.781L214.05 106.598C214.05 106.598 220.94 104.531 222.387 105.598C223.834 106.665 223.269 108.036 224.551 106.3C225.832 104.565 225.088 103.57 226.367 104.959C227.645 106.348 228.024 108.861 228.575 105.693C229.125 102.525 230.496 103.09 230.496 103.09L229.691 73.9064C229.691 73.9064 232.961 59.7889 240.548 64.0433C248.135 68.2977 247.371 71.7545 247.371 71.7545Z" fill="#F2F2F2"/>
<path d="M242.251 51.1896C242.251 51.1896 241.628 55.9166 235.852 56.0707L224.136 56.384C224.136 56.384 234.04 32.2958 229.967 35.0078C225.895 37.7197 215.035 26.3449 215.035 26.3449L211.831 32.3511C211.831 32.3511 204.176 29.5806 212.66 22.7977C212.66 22.7977 222.783 14.9764 233.529 19.6729C244.276 24.3694 242.251 51.1896 242.251 51.1896Z" fill="#090814"/>
</g>
<defs>
<clipPath id="clip0_56_15">
<rect width="293" height="266" fill="white"/>
</clipPath>
</defs>
</svg>
