<svg width="478" height="354" viewBox="0 0 478 354" fill="none" xmlns="http://www.w3.org/2000/svg">
<g clip-path="url(#clip0_61_420)">
<path d="M477.401 22.0112H0.598363C0.436041 22.0112 0.280364 21.9467 0.165585 21.832C0.0508056 21.7174 -0.0136719 21.5618 -0.0136719 21.3996C-0.0136719 21.2374 0.0508056 21.0819 0.165585 20.9672C0.280364 20.8525 0.436041 20.7881 0.598363 20.7881H477.401C477.564 20.7881 477.719 20.8525 477.834 20.9672C477.949 21.0819 478.013 21.2374 478.013 21.3996C478.013 21.5618 477.949 21.7174 477.834 21.832C477.719 21.9467 477.564 22.0112 477.401 22.0112Z" fill="#CACACA"/>
<path d="M14.0715 13.4515C17.7081 13.4515 20.6561 10.4403 20.6561 6.72574C20.6561 3.01122 17.7081 0 14.0715 0C10.4349 0 7.48682 3.01122 7.48682 6.72574C7.48682 10.4403 10.4349 13.4515 14.0715 13.4515Z" fill="#3F3D56"/>
<path d="M36.8176 13.4515C40.4542 13.4515 43.4022 10.4403 43.4022 6.72574C43.4022 3.01122 40.4542 0 36.8176 0C33.181 0 30.2329 3.01122 30.2329 6.72574C30.2329 10.4403 33.181 13.4515 36.8176 13.4515Z" fill="#3F3D56"/>
<path d="M59.5641 13.4515C63.2007 13.4515 66.1488 10.4403 66.1488 6.72574C66.1488 3.01122 63.2007 0 59.5641 0C55.9275 0 52.9795 3.01122 52.9795 6.72574C52.9795 10.4403 55.9275 13.4515 59.5641 13.4515Z" fill="#3F3D56"/>
<path d="M463.771 4.11339H447.611C447.287 4.11339 446.975 3.98453 446.746 3.75516C446.516 3.52579 446.387 3.2147 446.387 2.89032C446.387 2.56594 446.516 2.25484 446.746 2.02547C446.975 1.7961 447.287 1.66724 447.611 1.66724H463.771C464.095 1.66724 464.407 1.7961 464.636 2.02547C464.866 2.25484 464.995 2.56594 464.995 2.89032C464.995 3.2147 464.866 3.52579 464.636 3.75516C464.407 3.98453 464.095 4.11339 463.771 4.11339Z" fill="#3F3D56"/>
<path d="M463.771 8.69958H447.611C447.287 8.69958 446.975 8.57071 446.746 8.34134C446.516 8.11197 446.387 7.80088 446.387 7.4765C446.387 7.15212 446.516 6.84102 446.746 6.61165C446.975 6.38228 447.287 6.25342 447.611 6.25342H463.771C464.095 6.25342 464.407 6.38228 464.636 6.61165C464.866 6.84102 464.995 7.15212 464.995 7.4765C464.995 7.80088 464.866 8.11197 464.636 8.34134C464.407 8.57071 464.095 8.69958 463.771 8.69958Z" fill="#3F3D56"/>
<path d="M463.771 13.2853H447.611C447.287 13.2853 446.975 13.1564 446.746 12.927C446.516 12.6977 446.387 12.3866 446.387 12.0622C446.387 11.7378 446.516 11.4267 446.746 11.1974C446.975 10.968 447.287 10.8391 447.611 10.8391H463.771C464.095 10.8391 464.407 10.968 464.636 11.1974C464.866 11.4267 464.995 11.7378 464.995 12.0622C464.995 12.3866 464.866 12.6977 464.636 12.927C464.407 13.1564 464.095 13.2853 463.771 13.2853Z" fill="#3F3D56"/>
<path d="M258.116 119.29C259.541 120.112 260.726 121.292 261.555 122.712C262.384 124.133 262.826 125.745 262.84 127.39C262.853 129.034 262.436 130.653 261.631 132.087C260.825 133.521 259.659 134.72 258.247 135.565C256.836 136.41 255.228 136.872 253.582 136.906C251.937 136.939 250.311 136.542 248.867 135.755C247.422 134.968 246.208 133.817 245.345 132.417C244.482 131.017 244 129.416 243.947 127.772L243.942 127.466L243.947 127.16C244 125.53 244.474 123.941 245.325 122.548C246.175 121.155 247.373 120.007 248.8 119.214C250.227 118.421 251.835 118.012 253.468 118.025C255.1 118.038 256.702 118.474 258.116 119.29ZM256.415 129.622C256.326 129.535 256.221 129.467 256.106 129.42C255.991 129.374 255.868 129.351 255.744 129.352C255.62 129.353 255.497 129.379 255.383 129.427C255.269 129.476 255.166 129.547 255.079 129.635C254.859 129.859 254.596 130.038 254.307 130.16C254.017 130.281 253.705 130.344 253.391 130.344C253.077 130.344 252.765 130.281 252.476 130.16C252.186 130.038 251.923 129.859 251.703 129.635C251.528 129.456 251.289 129.354 251.038 129.352C250.788 129.35 250.546 129.447 250.367 129.622C250.188 129.797 250.087 130.036 250.084 130.287C250.082 130.537 250.179 130.778 250.354 130.957C250.75 131.36 251.223 131.681 251.744 131.9C252.266 132.119 252.825 132.232 253.391 132.232C253.957 132.232 254.517 132.119 255.038 131.9C255.56 131.681 256.032 131.36 256.428 130.957C256.515 130.868 256.583 130.764 256.63 130.649C256.676 130.534 256.699 130.411 256.698 130.287C256.697 130.163 256.671 130.04 256.623 129.926C256.574 129.812 256.503 129.709 256.415 129.622ZM250.566 124.631L250.446 124.638C250.206 124.665 249.985 124.783 249.83 124.968C249.674 125.152 249.595 125.39 249.609 125.631C249.624 125.872 249.73 126.098 249.906 126.264C250.082 126.429 250.315 126.521 250.557 126.519L250.677 126.513C250.917 126.486 251.138 126.368 251.293 126.183C251.449 125.998 251.528 125.761 251.514 125.519C251.5 125.278 251.393 125.052 251.217 124.887C251.041 124.721 250.808 124.63 250.566 124.631ZM256.235 124.631L256.116 124.638C255.875 124.665 255.655 124.783 255.499 124.968C255.343 125.152 255.264 125.39 255.279 125.631C255.293 125.872 255.399 126.098 255.575 126.264C255.752 126.429 255.985 126.521 256.226 126.519L256.346 126.513C256.586 126.486 256.807 126.368 256.963 126.183C257.118 125.998 257.197 125.761 257.183 125.519C257.169 125.278 257.063 125.052 256.886 124.887C256.71 124.721 256.477 124.63 256.235 124.631Z" fill="#7E0073"/>
<path d="M358.54 306.31L358.378 306.301H350.421C350.18 306.302 349.946 306.215 349.765 306.056C349.583 305.897 349.467 305.677 349.436 305.437L349.428 305.321V295.944C349.43 295.771 349.477 295.602 349.564 295.453C349.652 295.303 349.777 295.18 349.927 295.094C350.349 294.855 350.706 294.514 350.965 294.103C351.224 293.692 351.377 293.224 351.41 292.74L351.418 292.542V291.556C351.42 291.167 351.499 290.782 351.65 290.423C351.801 290.064 352.021 289.739 352.298 289.465C352.575 289.191 352.903 288.974 353.264 288.827C353.625 288.68 354.011 288.606 354.401 288.608C355.158 288.604 355.888 288.89 356.442 289.406C356.995 289.922 357.331 290.63 357.379 291.385L357.384 291.555V295.489H359.373C360.101 295.486 360.805 295.75 361.351 296.231C361.897 296.711 362.248 297.375 362.337 298.097L362.353 298.267L362.357 298.438L362.337 298.631L361.337 303.579C360.963 305.165 359.859 306.31 358.574 306.31L358.54 306.31ZM346.626 306.301C346.127 306.304 345.646 306.12 345.278 305.783C344.911 305.446 344.684 304.983 344.644 304.486L344.636 304.339V297.455C344.639 296.957 344.83 296.477 345.171 296.113C345.513 295.749 345.98 295.527 346.478 295.492L346.626 295.489H347.623C347.865 295.488 348.099 295.576 348.281 295.736C348.462 295.896 348.579 296.118 348.608 296.358L348.617 296.472V305.319C348.615 305.561 348.525 305.794 348.363 305.974C348.201 306.154 347.978 306.269 347.737 306.296L347.623 306.299L346.626 306.301Z" fill="#7E0073"/>
<path d="M321.351 302.246C294.378 302.246 265.068 298.241 235.955 290.54C199.953 281.017 166.943 266.643 140.494 248.97L141.277 247.8C167.601 265.386 200.463 279.695 236.316 289.179C268.717 297.75 301.359 301.721 330.705 300.673L330.756 302.08C327.656 302.192 324.521 302.247 321.351 302.246Z" fill="#090814"/>
<path d="M317.312 119.33C308.552 116.481 299.543 113.827 290.532 111.444C238.681 97.728 187.712 92.8584 143.132 97.3639L142.99 95.9627C187.736 91.4428 238.88 96.3214 290.892 110.083C299.926 112.474 308.964 115.134 317.748 117.992L317.312 119.33Z" fill="#090814"/>
<path d="M79.7158 228.902C58.1048 207.645 48.9769 185.468 54.0138 166.458C60.4752 142.062 89.1925 125.194 132.797 120.18L132.958 121.579C89.9595 126.523 61.6837 143.012 55.3791 166.818C50.4774 185.319 59.4725 207.011 80.7072 227.899L79.7158 228.902Z" fill="#090814"/>
<path d="M372.81 293.509L372.358 292.175C396.48 284.026 411.568 270.898 415.99 254.21C421.611 232.995 409.4 208.376 381.606 184.89C353.671 161.284 313.387 141.696 268.173 129.737L268.532 128.375C313.941 140.387 354.422 160.076 382.513 183.814C410.746 207.672 423.118 232.8 417.35 254.57C412.804 271.737 397.402 285.201 372.81 293.509Z" fill="#090814"/>
<path d="M132.931 297.46C79.9323 273.973 39.0927 243.503 17.9358 211.66L19.1102 210.883C40.1205 242.506 80.7454 272.795 133.501 296.175L132.931 297.46Z" fill="#090814"/>
<path d="M343.456 236.224C346.57 236.224 349.094 233.702 349.094 230.59C349.094 227.479 346.57 224.957 343.456 224.957C340.342 224.957 337.818 227.479 337.818 230.59C337.818 233.702 340.342 236.224 343.456 236.224Z" fill="#E6E6E6"/>
<path d="M238.548 79.9671C241.662 79.9671 244.186 77.4449 244.186 74.3335C244.186 71.2222 241.662 68.7 238.548 68.7C235.434 68.7 232.91 71.2222 232.91 74.3335C232.91 77.4449 235.434 79.9671 238.548 79.9671Z" fill="#E6E6E6"/>
<path d="M120.402 290.426C120.402 291.861 120.449 293.296 120.55 294.717C120.656 296.416 120.84 298.104 121.088 299.78C121.922 305.423 123.515 310.927 125.825 316.144L126.179 316.921L126.359 317.31C126.418 317.44 126.482 317.57 126.542 317.694C126.624 317.865 126.701 318.03 126.781 318.195C126.882 318.402 126.982 318.609 127.088 318.815C127.1 318.838 127.111 318.868 127.129 318.897C127.218 319.077 127.3 319.245 127.395 319.423C127.412 319.461 127.432 319.499 127.455 319.535C127.555 319.736 127.661 319.942 127.768 320.143C127.887 320.355 127.998 320.574 128.116 320.786C128.399 321.312 128.694 321.831 128.996 322.35C129.084 322.504 129.175 322.657 129.267 322.81C129.35 322.952 129.433 323.094 129.521 323.235C129.581 323.33 129.641 323.43 129.701 323.525C129.795 323.684 129.89 323.837 129.99 323.997C130.209 324.345 130.433 324.693 130.652 325.041H130.658C130.758 325.201 130.865 325.36 130.971 325.514V325.52C131.284 325.992 131.609 326.464 131.933 326.93C131.935 326.93 131.936 326.93 131.938 326.932C131.939 326.933 131.939 326.934 131.939 326.936C132.199 327.314 132.471 327.679 132.737 328.045V328.051C132.916 328.281 133.085 328.518 133.263 328.748C133.405 328.937 133.552 329.131 133.7 329.32C133.729 329.362 133.765 329.397 133.794 329.44V329.446C133.835 329.499 133.877 329.546 133.918 329.6C134.544 330.402 135.19 331.187 135.855 331.954L135.962 332.078C135.997 332.119 136.038 332.16 136.074 332.208C136.134 332.273 136.187 332.337 136.245 332.403C136.304 332.468 136.358 332.532 136.416 332.597C139.885 336.502 143.818 339.968 148.128 342.919C148.701 343.314 149.286 343.696 149.87 344.07C150.018 344.164 150.166 344.259 150.313 344.347C150.354 344.376 150.402 344.407 150.443 344.435C150.525 344.483 150.603 344.53 150.682 344.583C150.762 344.636 150.836 344.678 150.919 344.725C151.231 344.92 151.55 345.109 151.869 345.297C151.946 345.345 152.029 345.392 152.109 345.439C152.188 345.486 152.268 345.528 152.348 345.575C152.348 345.581 152.348 345.581 152.354 345.581H152.36V345.587H152.366C152.761 345.817 153.163 346.041 153.571 346.259C153.789 346.379 154.013 346.498 154.238 346.613C154.746 346.891 155.26 347.156 155.774 347.41C155.957 347.499 156.146 347.589 156.329 347.681C156.483 347.752 156.636 347.829 156.79 347.9C156.837 347.923 156.879 347.941 156.92 347.965C157.05 348.025 157.174 348.084 157.304 348.144C157.446 348.209 157.588 348.274 157.723 348.339C157.882 348.41 158.036 348.481 158.195 348.545C158.786 348.811 159.382 349.065 159.979 349.306C162.117 350.182 164.301 350.938 166.523 351.572C166.623 351.602 166.73 351.632 166.836 351.661C167.787 351.926 168.744 352.168 169.707 352.387C171.391 352.776 173.09 353.095 174.804 353.343H174.816L175.431 353.432C175.449 353.432 175.466 353.438 175.49 353.438C175.49 353.444 175.49 353.444 175.496 353.438L176.175 353.526C176.191 353.531 176.207 353.533 176.223 353.532C176.435 353.561 176.654 353.585 176.866 353.609L177.557 353.679L178.089 353.732C178.104 353.738 178.12 353.74 178.136 353.738C178.296 353.75 178.455 353.768 178.615 353.78H178.639L179.052 353.815C180.7 353.945 182.353 354.004 184.031 354.004C185.844 354.004 187.646 353.933 189.423 353.78H189.441L190.581 353.673C190.681 353.661 190.776 353.655 190.876 353.644C190.894 353.644 190.918 353.638 190.936 353.638C190.965 353.632 190.996 353.632 191.031 353.626C191.047 353.626 191.063 353.624 191.078 353.62C191.208 353.608 191.338 353.591 191.473 353.579L191.916 353.525C192.064 353.508 192.212 353.484 192.359 353.466C192.394 353.46 192.424 353.46 192.459 353.454C192.566 353.442 192.672 353.424 192.778 353.407L192.932 353.389C193.038 353.371 193.139 353.359 193.245 353.341H193.251C196.492 352.876 199.691 352.156 202.819 351.189C202.984 351.136 203.149 351.089 203.314 351.036C203.32 351.036 203.326 351.03 203.332 351.03C203.38 351.012 203.433 351 203.48 350.982C203.923 350.841 204.36 350.693 204.796 350.54C205.399 350.339 205.993 350.122 206.591 349.897C206.751 349.832 206.91 349.773 207.07 349.708C207.395 349.584 207.714 349.454 208.033 349.324C208.576 349.106 209.119 348.876 209.657 348.64C210.159 348.416 210.655 348.191 211.153 347.955C211.165 347.949 211.182 347.949 211.194 347.937C211.306 347.884 211.418 347.831 211.525 347.778H211.531C214.251 346.473 216.874 344.976 219.38 343.298C220.183 342.762 220.975 342.207 221.754 341.634C222.38 341.168 222.994 340.696 223.609 340.212C226.639 337.804 229.444 335.125 231.989 332.21V332.204C232.172 332.003 232.344 331.797 232.521 331.59C232.55 331.561 232.574 331.53 232.597 331.508C232.71 331.372 232.816 331.242 232.928 331.113V331.107C233.076 330.936 233.224 330.759 233.365 330.581C233.4 330.54 233.43 330.505 233.459 330.469V330.463C233.579 330.321 233.69 330.179 233.808 330.032C233.867 329.961 233.92 329.89 233.979 329.819V329.813C234.327 329.377 234.664 328.94 235.001 328.492C235.089 328.372 235.18 328.253 235.272 328.126C235.697 327.553 236.11 326.969 236.512 326.385V326.379C236.666 326.161 236.811 325.937 236.967 325.718L237.41 325.046C237.558 324.809 237.709 324.579 237.858 324.343L237.876 324.308C238.024 324.084 238.172 323.848 238.313 323.617C238.426 323.429 238.538 323.246 238.65 323.063C238.721 322.939 238.798 322.815 238.868 322.685C238.896 322.645 238.922 322.604 238.945 322.561L239.441 321.694C239.636 321.357 239.825 321.015 240.014 320.673C240.085 320.531 240.162 320.389 240.238 320.248C240.268 320.2 240.292 320.153 240.315 320.106C240.404 319.941 240.494 319.769 240.575 319.598C240.655 319.427 240.754 319.262 240.84 319.091C240.926 318.92 241.011 318.754 241.094 318.583C241.159 318.454 241.218 318.324 241.283 318.194C241.288 318.184 241.294 318.174 241.301 318.165C241.33 318.1 241.361 318.041 241.383 317.982C241.391 317.973 241.397 317.963 241.401 317.953C241.467 317.823 241.525 317.687 241.591 317.558C241.673 317.387 241.75 317.21 241.83 317.038C241.883 316.919 241.942 316.799 241.995 316.672C242.072 316.501 242.155 316.33 242.225 316.153C242.308 315.973 242.385 315.799 242.462 315.615C242.484 315.571 242.504 315.525 242.521 315.479C242.563 315.397 242.592 315.314 242.628 315.231C242.722 315.013 242.817 314.789 242.906 314.57C243.012 314.322 243.112 314.068 243.205 313.82C243.299 313.59 243.388 313.354 243.476 313.118L243.512 313.035C244.888 309.414 245.931 305.675 246.63 301.864V301.858C247.024 299.682 247.306 297.488 247.475 295.283C247.481 295.159 247.493 295.044 247.498 294.924C247.604 293.43 247.652 291.935 247.652 290.428C247.652 289.76 247.64 289.1 247.622 288.439C247.21 274.616 242.277 261.308 233.578 250.553C233.389 250.316 233.2 250.08 233.005 249.844C232.81 249.608 232.609 249.378 232.414 249.148C225.94 241.572 217.774 235.622 208.576 231.778C199.378 227.934 189.405 226.303 179.46 227.016C169.516 227.73 159.878 230.769 151.325 235.887C142.771 241.006 135.541 248.06 130.216 256.483C129.927 256.943 129.638 257.41 129.36 257.876C129.083 258.342 128.805 258.82 128.533 259.298C123.186 268.802 120.385 279.524 120.402 290.426Z" fill="#F2F2F2"/>
<path d="M158.994 255.543C158.947 255.535 158.901 255.528 158.855 255.52C159.05 255.399 159.234 255.261 159.405 255.106L158.994 255.543Z" fill="white"/>
<path d="M176.668 310.571H190.287L191.134 326.194L175.029 324.944L176.668 310.571Z" fill="#FFB9B9"/>
<path d="M150.374 344.52C150.984 344.854 151.603 345.173 152.221 345.477C152.441 345.583 152.669 345.689 152.889 345.803C153.074 345.888 153.258 345.982 153.443 346.066C153.503 346.094 153.549 346.116 153.599 346.144C153.755 346.215 153.905 346.287 154.061 346.357C154.231 346.435 154.402 346.513 154.565 346.591C154.757 346.676 154.942 346.762 155.133 346.84C155.844 347.159 156.562 347.465 157.279 347.756C159.852 348.809 162.48 349.72 165.153 350.482C165.273 350.518 165.402 350.554 165.53 350.589C166.674 350.908 167.825 351.199 168.984 351.462C171.009 351.931 173.053 352.314 175.117 352.612H175.131L175.87 352.719C175.891 352.719 175.912 352.726 175.941 352.726C175.941 352.733 175.941 352.733 175.948 352.726L176.765 352.832C176.785 352.838 176.805 352.84 176.825 352.839C177.081 352.875 177.344 352.903 177.6 352.932L178.432 353.017L179.071 353.081C179.089 353.087 179.109 353.09 179.128 353.088C179.32 353.103 179.511 353.123 179.704 353.138H179.732L180.229 353.18C182.212 353.336 184.202 353.407 186.22 353.407C188.402 353.407 190.569 353.322 192.708 353.138H192.729L194.1 353.01C194.22 352.996 194.335 352.988 194.456 352.975C194.477 352.975 194.506 352.967 194.527 352.967C194.562 352.96 194.598 352.96 194.641 352.953C194.66 352.954 194.679 352.951 194.698 352.946C194.854 352.932 195.01 352.911 195.176 352.896L195.709 352.832C195.889 352.811 196.065 352.783 196.242 352.761C196.285 352.754 196.321 352.754 196.362 352.747C196.49 352.732 196.618 352.712 196.745 352.687L196.93 352.666C197.058 352.644 197.179 352.63 197.307 352.606H197.314C201.214 352.045 205.063 351.179 208.826 350.014C209.026 349.95 209.224 349.895 209.425 349.83C208.507 345.554 206.618 341.546 203.904 338.117C201.189 334.687 197.722 331.926 193.77 330.048C194.747 329.118 195.423 327.915 195.71 326.597C195.894 325.747 195.909 324.87 195.753 324.014C195.597 323.159 195.273 322.343 194.8 321.613C193.878 320.198 192.432 319.207 190.778 318.858L180.249 316.656C178.553 316.326 176.796 316.678 175.359 317.635C173.922 318.593 172.921 320.078 172.574 321.769C172.466 322.287 172.419 322.816 172.431 323.345C162.283 330.099 154.985 337.093 150.374 344.52Z" fill="#7E0073"/>
<path d="M179.896 315.374C191.165 315.374 200.3 306.246 200.3 294.985C200.3 283.725 191.165 274.597 179.896 274.597C168.626 274.597 159.491 283.725 159.491 294.985C159.491 306.246 168.626 315.374 179.896 315.374Z" fill="#FFB9B9"/>
<path d="M167.177 312.562C165.001 311.077 162.779 308.223 161.296 306.085C159.33 303.273 157.978 300.08 157.326 296.712C156.674 293.345 156.738 289.878 157.513 286.537C157.76 285.201 158.367 283.958 159.269 282.941C160.23 281.991 161.8 281.541 162.973 282.212C162.653 281.356 162.512 280.443 162.559 279.53C162.606 278.617 162.839 277.723 163.245 276.903C164.07 275.267 165.264 273.846 166.735 272.751C169.546 270.588 172.891 269.226 176.415 268.809C179.938 268.392 183.509 268.936 186.748 270.384C188.022 270.974 185.929 266.416 187.263 266.857C188.588 267.37 190.062 267.344 191.368 266.785C192.624 266.153 196.782 269.903 196.3 268.585C197.252 269.017 198.08 269.682 198.705 270.52C199.33 271.357 199.734 272.339 199.877 273.374C200.02 274.409 199.899 275.463 199.525 276.439C199.15 277.415 198.535 278.28 197.736 278.954C196.683 279.842 195.368 280.353 194.215 281.106C192.195 282.526 190.766 284.636 190.196 287.038C189.626 289.439 189.956 291.966 191.123 294.141C189.91 293.363 188.579 292.785 187.181 292.43C186.48 292.259 185.748 292.258 185.047 292.426C184.345 292.595 183.694 292.929 183.147 293.399C182.69 293.922 182.345 294.532 182.133 295.192C181.921 295.853 181.846 296.549 181.913 297.24C181.959 298.623 182.289 299.987 182.326 301.37C182.434 305.43 184.61 313.15 181.46 315.308C178.971 317.014 170.147 314.591 167.177 312.562Z" fill="#2F2E41"/>
<path d="M474.504 151.157C474.504 152.592 474.457 154.027 474.356 155.448C474.25 157.147 474.067 158.835 473.818 160.511C472.984 166.154 471.391 171.658 469.081 176.875L468.727 177.652L468.548 178.042C468.488 178.171 468.424 178.301 468.365 178.426C468.282 178.596 468.205 178.762 468.125 178.927C468.025 179.134 467.924 179.34 467.818 179.547C467.806 179.57 467.795 179.6 467.777 179.629C467.689 179.809 467.606 179.977 467.512 180.155C467.494 180.194 467.474 180.231 467.452 180.267C467.351 180.468 467.245 180.674 467.139 180.875C467.019 181.087 466.908 181.306 466.791 181.518C466.507 182.044 466.212 182.563 465.911 183.082C465.822 183.236 465.731 183.389 465.639 183.543C465.556 183.684 465.474 183.826 465.385 183.968C465.325 184.062 465.266 184.162 465.206 184.257C465.111 184.417 465.017 184.57 464.916 184.729C464.698 185.077 464.473 185.426 464.255 185.774H464.249C464.148 185.933 464.042 186.092 463.936 186.246V186.252C463.623 186.724 463.298 187.196 462.973 187.662C462.971 187.662 462.97 187.663 462.969 187.664C462.968 187.665 462.967 187.666 462.967 187.668C462.707 188.046 462.436 188.412 462.17 188.777V188.783C461.99 189.014 461.821 189.25 461.644 189.48C461.502 189.669 461.354 189.864 461.206 190.053C461.177 190.094 461.141 190.129 461.112 190.172V190.178C461.07 190.231 461.029 190.278 460.988 190.332C460.362 191.134 459.716 191.919 459.051 192.686L458.944 192.81C458.909 192.851 458.868 192.893 458.832 192.94C458.772 193.005 458.719 193.07 458.661 193.135C458.602 193.2 458.548 193.264 458.49 193.33C455.021 197.234 451.088 200.7 446.778 203.651C446.205 204.046 445.62 204.428 445.035 204.802C444.888 204.896 444.74 204.991 444.593 205.079C444.551 205.108 444.504 205.139 444.463 205.168C444.38 205.215 444.303 205.262 444.224 205.315C444.144 205.368 444.07 205.41 443.987 205.457C443.674 205.652 443.355 205.841 443.037 206.03C442.96 206.077 442.877 206.124 442.797 206.171C442.718 206.219 442.638 206.26 442.558 206.307C442.558 206.313 442.558 206.313 442.552 206.313H442.546V206.319H442.54C442.144 206.549 441.743 206.773 441.335 206.991C441.117 207.111 440.892 207.231 440.667 207.345C440.159 207.623 439.646 207.888 439.132 208.142C438.949 208.231 438.759 208.322 438.576 208.414C438.423 208.484 438.27 208.561 438.116 208.632C438.069 208.655 438.027 208.673 437.986 208.697C437.856 208.757 437.732 208.817 437.602 208.876C437.46 208.941 437.318 209.006 437.183 209.071C437.023 209.142 436.87 209.213 436.71 209.277C436.12 209.543 435.523 209.797 434.927 210.038C432.789 210.914 430.605 211.671 428.383 212.305C428.282 212.334 428.176 212.364 428.07 212.393C427.119 212.659 426.162 212.9 425.198 213.119C423.515 213.508 421.816 213.827 420.102 214.075H420.09L419.475 214.164C419.457 214.164 419.44 214.17 419.415 214.17C419.415 214.176 419.415 214.176 419.409 214.17L418.73 214.258C418.715 214.263 418.699 214.265 418.683 214.264C418.471 214.294 418.252 214.317 418.039 214.341L417.348 214.411L416.817 214.464C416.802 214.47 416.786 214.472 416.77 214.47C416.61 214.482 416.451 214.5 416.291 214.512H416.268L415.854 214.547C414.207 214.677 412.553 214.736 410.876 214.736C409.062 214.736 407.261 214.665 405.483 214.512H405.465L404.326 214.405C404.225 214.393 404.131 214.387 404.03 214.376C404.012 214.376 403.989 214.37 403.97 214.37C403.941 214.364 403.91 214.364 403.876 214.358C403.86 214.359 403.844 214.357 403.828 214.352C403.699 214.34 403.569 214.323 403.433 214.311L402.99 214.258C402.843 214.24 402.695 214.216 402.548 214.198C402.512 214.192 402.482 214.192 402.447 214.186C402.341 214.174 402.235 214.157 402.128 214.139L401.974 214.121C401.868 214.103 401.767 214.091 401.662 214.074H401.656C398.415 213.608 395.216 212.888 392.088 211.921C391.923 211.868 391.757 211.821 391.592 211.768C391.586 211.768 391.58 211.762 391.574 211.762C391.527 211.744 391.473 211.733 391.426 211.715C390.983 211.573 390.546 211.425 390.11 211.272C389.507 211.071 388.913 210.854 388.315 210.629C388.155 210.564 387.996 210.505 387.836 210.44C387.512 210.316 387.193 210.187 386.874 210.056C386.331 209.838 385.787 209.608 385.25 209.372C384.748 209.148 384.252 208.924 383.754 208.687C383.742 208.681 383.725 208.681 383.713 208.669C383.6 208.616 383.488 208.563 383.382 208.51H383.376C380.656 207.206 378.033 205.709 375.526 204.031C374.723 203.494 373.932 202.939 373.152 202.366C372.526 201.9 371.912 201.428 371.297 200.944C368.267 198.536 365.462 195.858 362.916 192.942V192.936C362.733 192.735 362.562 192.529 362.385 192.322C362.356 192.293 362.332 192.263 362.309 192.24C362.196 192.104 362.09 191.974 361.978 191.845V191.839C361.83 191.668 361.682 191.491 361.54 191.313C361.505 191.272 361.475 191.237 361.446 191.201V191.195C361.326 191.053 361.216 190.912 361.098 190.764C361.038 190.693 360.985 190.622 360.927 190.552V190.546C360.578 190.109 360.242 189.672 359.905 189.224C359.816 189.104 359.725 188.985 359.633 188.858C359.208 188.285 358.795 187.701 358.393 187.117V187.111C358.239 186.893 358.094 186.669 357.938 186.45L357.495 185.778C357.348 185.542 357.196 185.311 357.047 185.075L357.029 185.04C356.881 184.816 356.733 184.58 356.591 184.35C356.479 184.161 356.367 183.978 356.255 183.795C356.184 183.671 356.107 183.547 356.036 183.417C356.009 183.377 355.983 183.336 355.96 183.293L355.464 182.426C355.269 182.089 355.08 181.747 354.891 181.405C354.82 181.263 354.743 181.122 354.666 180.98C354.637 180.933 354.613 180.885 354.59 180.838C354.501 180.673 354.41 180.502 354.33 180.331C354.25 180.16 354.15 179.994 354.064 179.823C353.978 179.652 353.893 179.487 353.811 179.316C353.745 179.186 353.687 179.056 353.622 178.926C353.617 178.915 353.611 178.905 353.604 178.897C353.574 178.831 353.544 178.773 353.521 178.714C353.514 178.705 353.508 178.695 353.503 178.684C353.438 178.555 353.379 178.419 353.314 178.289C353.232 178.118 353.154 177.941 353.075 177.77C353.022 177.65 352.962 177.531 352.91 177.404C352.833 177.233 352.75 177.061 352.679 176.884C352.597 176.705 352.52 176.531 352.443 176.346C352.421 176.302 352.401 176.257 352.383 176.211C352.342 176.128 352.313 176.046 352.277 175.963C352.182 175.744 352.088 175.52 351.999 175.301C351.893 175.053 351.793 174.8 351.7 174.552C351.605 174.322 351.517 174.086 351.428 173.849L351.393 173.767C350.017 170.145 348.973 166.406 348.275 162.596V162.59C347.881 160.414 347.599 158.219 347.43 156.014C347.424 155.891 347.412 155.775 347.407 155.656C347.3 154.161 347.253 152.667 347.253 151.159C347.253 150.492 347.265 149.831 347.282 149.17C347.695 135.348 352.628 122.04 361.327 111.285C361.516 111.049 361.705 110.812 361.9 110.576C362.095 110.34 362.295 110.11 362.49 109.88C368.965 102.304 377.13 96.3541 386.328 92.51C395.526 88.6658 405.5 87.0348 415.444 87.7486C425.389 88.4624 435.026 91.501 443.58 96.6194C452.134 101.738 459.364 108.793 464.688 117.215C464.978 117.676 465.267 118.142 465.545 118.608C465.823 119.075 466.1 119.552 466.372 120.03C471.722 129.534 474.524 140.256 474.508 151.16L474.504 151.157Z" fill="#F2F2F2"/>
<path d="M435.913 116.274C435.96 116.266 436.006 116.259 436.053 116.251C435.857 116.13 435.673 115.992 435.503 115.837L435.913 116.274Z" fill="white"/>
<path d="M400.263 177.037L416.396 175.266L420.235 189.387L404.957 192.97L400.263 177.037Z" fill="#ED9DA0"/>
<path d="M404.29 181.337C414.844 181.337 423.401 172.597 423.401 161.816C423.401 151.035 414.844 142.295 404.29 142.295C393.735 142.295 385.179 151.035 385.179 161.816C385.179 172.597 393.735 181.337 404.29 181.337Z" fill="#ED9DA0"/>
<path d="M445.073 206.679C444.519 206.981 443.959 207.27 443.398 207.547C443.198 207.643 442.992 207.74 442.793 207.843C442.625 207.92 442.458 208.003 442.291 208.082C442.239 208.107 442.194 208.126 442.149 208.152C442.007 208.217 441.872 208.281 441.73 208.345C441.576 208.416 441.421 208.487 441.273 208.557C441.099 208.635 440.932 208.712 440.758 208.782C440.114 209.072 439.464 209.348 438.814 209.612C436.484 210.566 434.103 211.391 431.682 212.081C431.573 212.114 431.457 212.146 431.341 212.178C430.304 212.467 429.261 212.731 428.213 212.969C426.378 213.393 424.526 213.74 422.658 214.011H422.645L421.976 214.107C421.956 214.107 421.937 214.113 421.911 214.113C421.911 214.12 421.911 214.12 421.904 214.113L421.164 214.21C421.148 214.215 421.13 214.217 421.113 214.216C420.881 214.248 420.643 214.276 420.411 214.3L419.658 214.377L419.079 214.437C419.062 214.442 419.045 214.445 419.027 214.443C418.853 214.456 418.68 214.476 418.506 214.488H418.48L418.03 214.527C416.235 214.669 414.432 214.733 412.604 214.733C410.629 214.733 408.665 214.656 406.727 214.488H406.711L405.469 214.372C405.36 214.359 405.257 214.353 405.147 214.34C405.128 214.34 405.102 214.333 405.083 214.333C405.05 214.327 405.018 214.327 404.98 214.32C404.962 214.321 404.945 214.319 404.928 214.314C404.786 214.301 404.645 214.281 404.497 214.269L404.014 214.209C403.853 214.19 403.692 214.164 403.531 214.144C403.492 214.138 403.461 214.138 403.422 214.132C403.306 214.119 403.19 214.1 403.074 214.08L402.907 214.061C402.791 214.042 402.681 214.029 402.566 214.01H402.559C399.027 213.502 395.541 212.717 392.132 211.662C391.952 211.603 391.773 211.553 391.593 211.495C392.424 207.622 394.135 203.992 396.594 200.885C399.052 197.779 402.193 195.278 405.772 193.577C404.887 192.734 404.275 191.645 404.015 190.451C403.848 189.681 403.835 188.886 403.976 188.111C404.118 187.336 404.411 186.597 404.839 185.936C405.674 184.655 406.985 183.757 408.482 183.441L418.019 181.447C419.554 181.148 421.146 181.466 422.448 182.334C423.75 183.201 424.656 184.546 424.971 186.078C425.068 186.547 425.111 187.026 425.099 187.505C434.285 193.616 440.896 199.951 445.073 206.679Z" fill="#7E0073"/>
<path d="M455.428 153.349C452.18 149.564 450.635 144.542 448.038 140.244C445.441 135.946 440.922 132.098 436.148 133.099C432.858 133.789 430.314 136.691 429.029 139.925C427.744 143.16 427.5 146.728 427.274 150.223C427.354 143.04 422.618 136.077 416.094 133.784C409.571 131.49 401.764 134.048 397.668 139.821C395.879 138.165 393.544 137.221 391.105 137.17C388.667 137.119 386.294 137.964 384.437 139.544C380.77 142.819 379.959 149.049 382.656 153.227C385.352 157.406 391.192 158.96 395.477 156.644L396.992 158.036C396.139 161.016 397.793 164.536 400.573 165.658C402.827 166.568 406.009 166.417 406.855 168.781C407.444 170.432 406.343 172.195 405.171 173.464C403.999 174.733 402.607 176.044 402.466 177.8C402.254 180.45 404.994 182.306 407.486 182.865C413.493 184.213 420.159 181.433 423.621 176.136C423.687 176.034 423.76 175.932 423.839 175.83C425.781 173.348 427.197 170.496 427.999 167.448C428.802 164.401 428.974 161.222 428.505 158.106C428.31 156.882 428.505 155.972 429.352 155.682C433.001 154.426 443.232 157.057 446.33 159.436C449.427 161.815 451.906 164.959 454.885 167.49C457.864 170.021 461.668 171.973 465.455 171.284C468.487 170.732 471.068 168.534 472.803 165.878C474.538 163.222 475.537 160.131 476.431 157.057C469.721 160.927 460.542 159.307 455.428 153.349Z" fill="#2F2E41"/>
<path d="M62.5231 111.619C62.5231 113.053 62.5704 114.488 62.6709 115.909C62.7774 117.609 62.9605 119.296 63.2093 120.972C64.043 126.615 65.6362 132.12 67.9459 137.336L68.3001 138.113L68.4796 138.503C68.5394 138.633 68.6034 138.763 68.6626 138.887C68.7452 139.058 68.8224 139.223 68.9019 139.388C69.0025 139.595 69.103 139.801 69.2089 140.008C69.2208 140.032 69.2322 140.062 69.2501 140.091C69.3387 140.27 69.4212 140.439 69.5158 140.616C69.5334 140.655 69.5534 140.692 69.5756 140.729C69.6761 140.93 69.7826 141.136 69.8885 141.337C70.0082 141.549 70.1188 141.768 70.2367 141.98C70.5203 142.505 70.8152 143.024 71.1168 143.544C71.2053 143.697 71.2963 143.85 71.3884 144.004C71.471 144.146 71.5535 144.287 71.6421 144.429C71.7019 144.523 71.7617 144.624 71.8215 144.718C71.9161 144.878 72.0106 145.031 72.1111 145.191C72.3295 145.538 72.5538 145.887 72.7728 146.235H72.7788C72.8793 146.395 72.9852 146.554 73.0917 146.707V146.713C73.4046 147.185 73.7294 147.657 74.0543 148.123C74.0557 148.123 74.0572 148.123 74.0585 148.123C74.059 148.125 74.059 148.126 74.0585 148.128C74.3182 148.505 74.5898 148.871 74.856 149.237V149.243C75.0355 149.473 75.2042 149.709 75.3819 149.939C75.5237 150.128 75.6715 150.323 75.8186 150.512C75.8479 150.553 75.8839 150.589 75.9132 150.632V150.638C75.9545 150.691 75.9957 150.738 76.037 150.791C76.6632 151.594 77.3089 152.379 77.9742 153.146L78.0807 153.27C78.116 153.311 78.1573 153.352 78.1932 153.399C78.253 153.465 78.3057 153.529 78.3643 153.594C78.4229 153.659 78.4768 153.724 78.5354 153.789C82.0041 157.693 85.9372 161.16 90.2473 164.111C90.8205 164.506 91.405 164.888 91.9895 165.261C92.1373 165.356 92.285 165.45 92.4322 165.539C92.4735 165.568 92.5208 165.599 92.562 165.627C92.6446 165.674 92.7218 165.722 92.8014 165.775C92.8809 165.828 92.9551 165.869 93.0377 165.917C93.3506 166.111 93.6694 166.3 93.9883 166.489C94.0649 166.536 94.1481 166.584 94.2277 166.631C94.3072 166.678 94.3874 166.719 94.467 166.767C94.467 166.773 94.467 166.773 94.4729 166.773H94.4789V166.779H94.4849C94.8806 167.009 95.2822 167.233 95.6898 167.451C95.9082 167.571 96.1326 167.69 96.3575 167.805C96.8655 168.082 97.3794 168.348 97.8933 168.602C98.0764 168.69 98.2654 168.781 98.4485 168.873C98.6023 168.944 98.7554 169.021 98.9092 169.091C98.9564 169.115 98.9977 169.133 99.039 169.157C99.1688 169.216 99.2927 169.276 99.4231 169.336C99.5649 169.401 99.7067 169.466 99.8419 169.531C100.002 169.601 100.155 169.672 100.315 169.738C100.905 170.003 101.502 170.257 102.098 170.499C104.236 171.374 106.42 172.131 108.642 172.765C108.742 172.794 108.848 172.825 108.955 172.853C109.906 173.119 110.863 173.361 111.827 173.579C113.51 173.968 115.209 174.287 116.923 174.536H116.935L117.55 174.624C117.568 174.624 117.585 174.63 117.61 174.63C117.61 174.636 117.61 174.636 117.616 174.63L118.295 174.718C118.31 174.723 118.326 174.725 118.342 174.724C118.554 174.754 118.773 174.778 118.986 174.801L119.677 174.871L120.208 174.925C120.223 174.93 120.239 174.932 120.255 174.931C120.415 174.943 120.574 174.96 120.734 174.972H120.757L121.17 175.007C122.818 175.137 124.472 175.196 126.149 175.196C127.963 175.196 129.764 175.126 131.542 174.972H131.56L132.699 174.866C132.8 174.854 132.894 174.848 132.995 174.836C133.013 174.836 133.036 174.83 133.055 174.83C133.084 174.824 133.115 174.824 133.149 174.818C133.165 174.819 133.181 174.817 133.196 174.812C133.326 174.8 133.456 174.783 133.592 174.771L134.035 174.718C134.182 174.7 134.33 174.677 134.477 174.658C134.513 174.652 134.543 174.652 134.578 174.646C134.684 174.634 134.79 174.617 134.897 174.599L135.051 174.581C135.157 174.563 135.257 174.552 135.363 174.534H135.369C138.61 174.068 141.809 173.349 144.937 172.382C145.102 172.328 145.268 172.281 145.433 172.228C145.439 172.228 145.445 172.222 145.451 172.222C145.498 172.204 145.551 172.193 145.599 172.175C146.041 172.033 146.479 171.885 146.915 171.732C147.517 171.532 148.112 171.314 148.71 171.089C148.87 171.024 149.029 170.965 149.188 170.9C149.513 170.777 149.832 170.647 150.151 170.517C150.694 170.298 151.238 170.068 151.775 169.832C152.277 169.608 152.773 169.384 153.271 169.148C153.283 169.142 153.3 169.142 153.312 169.13C153.425 169.076 153.537 169.023 153.643 168.97H153.649C156.369 167.666 158.992 166.169 161.499 164.491C162.302 163.954 163.093 163.399 163.873 162.827C164.498 162.36 165.113 161.888 165.727 161.404C168.757 158.996 171.563 156.318 174.108 153.402V153.396C174.291 153.196 174.462 152.989 174.639 152.783C174.668 152.753 174.692 152.723 174.716 152.7C174.828 152.564 174.934 152.435 175.047 152.305V152.299C175.194 152.128 175.342 151.951 175.483 151.773C175.519 151.732 175.549 151.697 175.578 151.661V151.655C175.698 151.513 175.808 151.372 175.926 151.224C175.986 151.154 176.039 151.082 176.097 151.012V151.006C176.445 150.569 176.782 150.133 177.119 149.684C177.208 149.565 177.299 149.445 177.391 149.318C177.816 148.746 178.228 148.162 178.631 147.578V147.572C178.785 147.353 178.93 147.129 179.086 146.91L179.528 146.238C179.676 146.002 179.827 145.772 179.977 145.536L179.995 145.5C180.143 145.276 180.29 145.04 180.432 144.81C180.544 144.621 180.656 144.438 180.769 144.255C180.839 144.131 180.916 144.007 180.987 143.877C181.015 143.837 181.04 143.796 181.063 143.754L181.559 142.886C181.754 142.55 181.944 142.208 182.133 141.865C182.203 141.723 182.28 141.582 182.357 141.44C182.386 141.393 182.41 141.346 182.434 141.298C182.522 141.133 182.613 140.962 182.693 140.791C182.773 140.62 182.873 140.454 182.959 140.283C183.045 140.112 183.13 139.947 183.212 139.776C183.278 139.646 183.336 139.516 183.402 139.386C183.406 139.376 183.412 139.366 183.419 139.357C183.449 139.292 183.479 139.233 183.502 139.174C183.509 139.165 183.515 139.155 183.52 139.145C183.585 139.015 183.644 138.879 183.709 138.749C183.792 138.578 183.869 138.401 183.948 138.23C184.002 138.11 184.061 137.991 184.113 137.864C184.19 137.693 184.273 137.522 184.344 137.345C184.426 137.165 184.504 136.991 184.58 136.807C184.603 136.762 184.623 136.717 184.64 136.671C184.681 136.588 184.711 136.506 184.746 136.423C184.841 136.205 184.936 135.98 185.024 135.762C185.131 135.514 185.231 135.26 185.323 135.012C185.418 134.782 185.506 134.546 185.595 134.31L185.63 134.227C187.006 130.606 188.05 126.867 188.748 123.056V123.05C189.142 120.874 189.424 118.679 189.593 116.475C189.599 116.351 189.611 116.235 189.617 116.116C189.724 114.621 189.771 113.127 189.771 111.619C189.771 110.952 189.759 110.292 189.741 109.63C189.329 95.8077 184.396 82.5006 175.697 71.7449C175.508 71.5088 175.319 71.2726 175.124 71.0365C174.929 70.8004 174.728 70.5702 174.533 70.3401C168.059 62.7642 159.894 56.8143 150.696 52.9702C141.497 49.126 131.524 47.4951 121.58 48.2089C111.635 48.9226 101.997 51.9612 93.4437 57.0795C84.89 62.1979 77.6596 69.2528 72.3355 77.6756C72.0459 78.1359 71.7569 78.6021 71.4793 79.0684C71.2017 79.5347 70.9241 80.0123 70.6525 80.4906C65.3027 89.9936 62.5 100.716 62.5159 111.619L62.5231 111.619Z" fill="#F2F2F2"/>
<path d="M101.115 76.7358C101.068 76.7275 101.022 76.7209 100.976 76.7125C101.171 76.5915 101.355 76.4531 101.525 76.2988L101.115 76.7358Z" fill="white"/>
<path d="M122.799 128.647H137.636L137.005 147.848L120.211 146.534L122.799 128.647Z" fill="#9E616A"/>
<path d="M96.3647 167.281C96.9439 167.601 97.529 167.906 98.1147 168.198C98.3235 168.3 98.5389 168.402 98.7477 168.511C98.923 168.592 99.0977 168.681 99.273 168.762C99.3268 168.789 99.3741 168.81 99.4207 168.837C99.5691 168.905 99.7103 168.973 99.8581 169.041C100.02 169.115 100.181 169.19 100.337 169.265C100.516 169.346 100.696 169.428 100.875 169.504C101.548 169.809 102.228 170.102 102.909 170.38C105.345 171.387 107.835 172.258 110.367 172.987C110.482 173.021 110.603 173.055 110.726 173.089C111.81 173.395 112.901 173.674 113.998 173.926C115.916 174.374 117.853 174.741 119.807 175.026H119.82L120.52 175.127C120.541 175.127 120.561 175.134 120.588 175.134C120.588 175.141 120.588 175.141 120.594 175.134L121.369 175.236C121.386 175.241 121.404 175.243 121.422 175.242C121.665 175.276 121.914 175.302 122.156 175.331L122.943 175.412L123.549 175.472C123.567 175.478 123.585 175.48 123.603 175.478C123.783 175.492 123.967 175.512 124.148 175.526H124.175L124.647 175.567C126.525 175.716 128.409 175.784 130.321 175.784C132.388 175.784 134.441 175.702 136.467 175.526H136.487L137.786 175.406C137.9 175.392 138.008 175.386 138.123 175.372C138.143 175.372 138.17 175.365 138.19 175.365C138.224 175.359 138.258 175.359 138.298 175.352C138.316 175.352 138.334 175.35 138.352 175.345C138.5 175.331 138.651 175.311 138.803 175.298L139.308 175.238C139.476 175.218 139.645 175.19 139.813 175.17C139.854 175.163 139.887 175.163 139.927 175.156C140.047 175.142 140.166 175.122 140.291 175.102L140.466 175.081C140.586 175.061 140.702 175.047 140.825 175.027H140.832C144.525 174.488 148.17 173.658 151.732 172.544C151.921 172.484 152.109 172.428 152.298 172.364C151.439 168.288 149.655 164.462 147.084 161.183C144.513 157.903 141.223 155.256 137.468 153.446C138.396 152.553 139.036 151.404 139.306 150.145C139.659 148.505 139.35 146.792 138.445 145.378C138.015 144.71 137.457 144.133 136.803 143.681C136.149 143.229 135.412 142.911 134.635 142.744L124.659 140.639C123.047 140.328 121.376 140.668 120.014 141.584C118.652 142.501 117.708 143.919 117.389 145.528C117.288 146.024 117.243 146.53 117.255 147.036C107.646 153.487 100.733 160.178 96.3647 167.281Z" fill="#7E0073"/>
<path d="M127.231 139.565C138.997 139.565 148.536 130.035 148.536 118.278C148.536 106.521 138.997 96.9907 127.231 96.9907C115.465 96.9907 105.927 106.521 105.927 118.278C105.927 130.035 115.465 139.565 127.231 139.565Z" fill="#9E616A"/>
<path d="M124.204 138.428C118.871 139.867 112.99 137.954 108.829 134.323C104.667 130.693 102.063 125.55 100.562 120.237C99.4633 116.346 98.9428 112.027 100.677 108.374C102.41 104.721 107.078 102.257 110.677 104.101C108.457 101.516 109.566 97.2394 112.16 95.0282C114.754 92.817 118.316 92.1822 121.708 91.8354C126.631 91.3321 131.716 91.2759 136.402 92.8696C141.087 94.4633 145.343 97.9472 146.812 102.673C148.309 103.37 149.995 103.551 151.607 103.187C153.218 102.824 154.663 101.937 155.716 100.665C155.988 102.126 155.77 103.635 155.096 104.96C154.422 106.285 153.33 107.351 151.989 107.993L159.168 105.667C160.403 108.278 158.24 111.509 155.473 112.346C152.707 113.182 149.722 112.268 147.098 111.06C144.474 109.852 141.929 108.325 139.078 107.854C136.226 107.383 132.877 108.298 131.558 110.867C130.867 112.213 130.832 113.789 130.431 115.247C130.03 116.705 129.014 118.218 127.505 118.337C126.552 118.413 125.618 117.905 124.667 118.009C124.084 118.124 123.547 118.407 123.122 118.822C122.697 119.237 122.402 119.767 122.274 120.347C122.037 121.511 122.035 122.709 122.265 123.874L124.089 137.803L124.204 138.428Z" fill="#2F2E41"/>
<path d="M6.28726 190.992C7.12326 190.85 7.98058 190.897 8.796 191.129C9.61141 191.362 10.3641 191.775 10.9987 192.337L11.0334 192.368L11.0657 192.34C11.6711 191.809 12.383 191.412 13.1538 191.177C13.9247 190.942 14.7368 190.875 15.536 190.978L15.7682 191.012C16.7754 191.186 17.7168 191.629 18.4928 192.293C19.2688 192.958 19.8504 193.82 20.1761 194.788C20.5017 195.756 20.5593 196.794 20.3427 197.792C20.1261 198.79 19.6433 199.711 18.9456 200.457L18.7757 200.632L18.7302 200.671L11.6909 207.638C11.5285 207.798 11.3133 207.894 11.0853 207.909C10.8572 207.923 10.6318 207.854 10.4507 207.715L10.3621 207.638L3.2875 200.633C2.53763 199.904 2.00432 198.982 1.74663 197.969C1.48894 196.956 1.51694 195.891 1.82753 194.893C2.13812 193.895 2.71916 193.002 3.50631 192.313C4.29346 191.625 5.25598 191.168 6.28726 190.992Z" fill="#7E0073"/>
<path d="M327.394 130.579C326.671 130.579 325.975 130.303 325.448 129.807C324.922 129.311 324.606 128.632 324.564 127.91L324.557 127.743V118.811L333.483 124.757L333.591 124.816C333.72 124.881 333.863 124.915 334.007 124.915C334.152 124.915 334.294 124.881 334.423 124.816L334.531 124.757L343.457 118.811V127.743C343.458 128.465 343.181 129.161 342.685 129.687C342.188 130.212 341.509 130.528 340.787 130.569L340.62 130.579H327.394ZM324.978 116.821C325.215 116.436 325.54 116.113 325.928 115.88C326.315 115.646 326.753 115.509 327.204 115.48L327.394 115.472H340.619C341.103 115.472 341.579 115.596 342.002 115.832C342.425 116.068 342.78 116.409 343.034 116.821L334.004 122.832L324.978 116.821Z" fill="#7E0073"/>
<path d="M100.78 228.902C101.783 228.902 102.744 229.3 103.453 230.009C104.162 230.717 104.56 231.678 104.56 232.679V240.233C104.56 241.235 104.162 242.195 103.453 242.903C102.744 243.612 101.783 244.01 100.78 244.01H96.3157L91.8161 246.708C91.6806 246.789 91.5268 246.835 91.3688 246.842C91.2108 246.848 91.0537 246.815 90.9119 246.745C90.7701 246.675 90.6481 246.571 90.5571 246.442C90.4661 246.313 90.409 246.163 90.391 246.006L90.3856 245.898V244.01H89.4403C88.4708 244.01 87.5383 243.637 86.8356 242.97C86.133 242.302 85.714 241.39 85.6652 240.423L85.6604 240.233V232.679C85.6604 231.678 86.0586 230.717 86.7675 230.009C87.4764 229.3 88.4378 228.902 89.4403 228.902H100.78ZM97.0002 237.4H91.3303C91.0797 237.4 90.8393 237.499 90.6621 237.676C90.4849 237.854 90.3853 238.094 90.3853 238.344C90.3853 238.595 90.4849 238.835 90.6621 239.012C90.8393 239.189 91.0797 239.288 91.3303 239.288H97.0002C97.2508 239.288 97.4911 239.189 97.6684 239.012C97.8456 238.835 97.9451 238.595 97.9451 238.344C97.9451 238.094 97.8456 237.854 97.6684 237.676C97.4911 237.499 97.2508 237.4 97.0002 237.4ZM98.8901 233.625H91.3303C91.0797 233.625 90.8393 233.724 90.6621 233.901C90.4849 234.079 90.3853 234.319 90.3853 234.569C90.3853 234.82 90.4849 235.06 90.6621 235.237C90.8393 235.414 91.0797 235.513 91.3303 235.513H98.8901C99.1407 235.513 99.3811 235.414 99.5583 235.237C99.7355 235.06 99.8351 234.82 99.8351 234.569C99.8351 234.319 99.7355 234.079 99.5583 233.901C99.3811 233.724 99.1407 233.625 98.8901 233.625Z" fill="#7E0073"/>
<path d="M91.2986 199.411C94.4124 199.411 96.9367 196.889 96.9367 193.778C96.9367 190.667 94.4124 188.144 91.2986 188.144C88.1847 188.144 85.6604 190.667 85.6604 193.778C85.6604 196.889 88.1847 199.411 91.2986 199.411Z" fill="#E6E6E6"/>
</g>
<defs>
<clipPath id="clip0_61_420">
<rect width="478" height="354" fill="white"/>
</clipPath>
</defs>
</svg>
